<?xml version="1.0" encoding="UTF-8"?>
<svg width="18px" height="18px" viewBox="0 0 18 18" version="1.1" xmlns="http://www.w3.org/2000/svg" xmlns:xlink="http://www.w3.org/1999/xlink">
    <!-- Generator: Sketch 55.2 (78181) - https://sketchapp.com -->
    <title>add-icon</title>
    <desc>Created with Sketch.</desc>
    <g id="Page-1" stroke="none" stroke-width="1" fill="none" fill-rule="evenodd">
        <path d="M9,18 C4.02943725,18 0,13.9705627 0,9 C0,4.02943725 4.02943725,0 9,0 C13.9705627,0 18,4.02943725 18,9 C18,13.9705627 13.9705627,18 9,18 Z M10.2178218,10.2178218 L13.9009901,10.2178218 C14.55717,10.2178218 15.0891089,9.68588287 15.0891089,9.02970297 C15.0891089,8.37352307 14.55717,7.84158416 13.9009901,7.84158416 L10.2178218,7.84158416 L10.2178218,4.15841584 C10.2178218,3.50223594 9.68588287,2.97029703 9.02970297,2.97029703 C8.37352307,2.97029703 7.84158416,3.50223594 7.84158416,4.15841584 L7.84158416,7.84158416 L4.15841584,7.84158416 C3.50223594,7.84158416 2.97029703,8.37352307 2.97029703,9.02970297 C2.97029703,9.68588287 3.50223594,10.2178218 4.15841584,10.2178218 L7.84158416,10.2178218 L7.84158416,13.9009901 C7.84158416,14.55717 8.37352307,15.0891089 9.02970297,15.0891089 C9.68588287,15.0891089 10.2178218,14.55717 10.2178218,13.9009901 L10.2178218,10.2178218 Z" id="Combined-Shape" fill="#000000"></path>
    </g>
</svg>