<?xml version="1.0" encoding="UTF-8"?>
<svg width="18px" height="18px" viewBox="0 0 18 18" version="1.1" xmlns="http://www.w3.org/2000/svg" xmlns:xlink="http://www.w3.org/1999/xlink">
    <!-- Generator: Sketch 55.2 (78181) - https://sketchapp.com -->
    <title>close-icon</title>
    <desc>Created with Sketch.</desc>
    <g id="Page-1" stroke="none" stroke-width="1" fill="none" fill-rule="evenodd">
        <path d="M9,18 C4.02943725,18 0,13.9705627 0,9 C0,4.02943725 4.02943725,0 9,0 C13.9705627,0 18,4.02943725 18,9 C18,13.9705627 13.9705627,18 9,18 Z M10.7099567,9.02970297 L13.31435,6.42530968 C13.7783393,5.96132042 13.7783393,5.2090452 13.31435,4.74505594 C12.8503607,4.28106668 12.0980855,4.28106668 11.6340963,4.74505594 L9.02970297,7.34944923 L6.42530968,4.74505594 C5.96132042,4.28106668 5.2090452,4.28106668 4.74505594,4.74505594 C4.28106668,5.2090452 4.28106668,5.96132042 4.74505594,6.42530968 L7.34944923,9.02970297 L4.74505594,11.6340963 C4.28106668,12.0980855 4.28106668,12.8503607 4.74505594,13.31435 C5.2090452,13.7783393 5.96132042,13.7783393 6.42530968,13.31435 L9.02970297,10.7099567 L11.6340963,13.31435 C12.0980855,13.7783393 12.8503607,13.7783393 13.31435,13.31435 C13.7783393,12.8503607 13.7783393,12.0980855 13.31435,11.6340963 L10.7099567,9.02970297 Z" id="Combined-Shape" fill="#000000"></path>
    </g>
</svg>